<svg width="56" height="56" viewBox="0 0 56 56" fill="none" xmlns="http://www.w3.org/2000/svg">
<rect x="1.5" y="1.5" width="53" height="53" rx="26.5" fill="#EA1917" fill-opacity="0.1"/>
<rect x="1.5" y="1.5" width="53" height="53" rx="26.5" stroke="#EA1917" stroke-width="3"/>
<path fill-rule="evenodd" clip-rule="evenodd" d="M26.8001 13.2963C25.1001 13.4404 23.4994 13.848 22.0047 14.5174C17.5223 16.5249 14.3309 20.6002 13.4763 25.4078C12.972 28.245 13.3048 31.1556 14.436 33.8009C15.4091 36.0764 16.9448 38.0726 18.9121 39.619C22.6199 42.5337 27.5461 43.4868 32.108 42.172C33.4017 41.7992 34.722 41.2043 35.8881 40.4687C37.2621 39.6019 38.5853 38.4029 39.6192 37.0878C42.9315 32.8746 43.6798 27.1462 41.5641 22.1987C40.5911 19.9232 39.0553 17.927 37.0881 16.3806C35.0406 14.7711 32.5697 13.7284 29.9681 13.376C29.0441 13.2508 27.7272 13.2177 26.8001 13.2963ZM27.1201 15.2827C26.4819 15.3439 26.2251 15.3758 25.8252 15.4438C24.2013 15.72 22.6565 16.3122 21.2161 17.2107C19.649 18.1882 18.1885 19.6488 17.211 21.2158C16.19 22.8526 15.6053 24.5059 15.338 26.5118C15.2588 27.1058 15.2588 28.8938 15.338 29.4878C15.6053 31.4938 16.19 33.147 17.211 34.7838C18.1884 36.3508 19.6478 37.8101 21.2161 38.789C22.8461 39.8064 24.5182 40.3976 26.5121 40.6615C27.1222 40.7423 28.8645 40.7418 29.4881 40.6606C31.4608 40.4041 33.159 39.8039 34.7841 38.7891C36.3507 37.8108 37.8111 36.3504 38.7894 34.7838C39.8043 33.1587 40.4052 31.4582 40.6608 29.4878C40.7438 28.8475 40.7438 27.1521 40.6608 26.5118C40.522 25.4424 40.3187 24.5895 39.9785 23.6497C38.715 20.1591 35.9529 17.3694 32.4695 16.0661C31.4939 15.7011 30.604 15.4836 29.5041 15.3416C29.1263 15.2928 27.4473 15.2513 27.1201 15.2827ZM22.6721 22.1277C22.172 22.332 21.9269 22.899 22.116 23.4146C22.1803 23.5901 22.2976 23.7138 24.3472 25.7678L26.5105 27.9358L24.364 30.0878C22.6665 31.7896 22.2015 32.2733 22.1408 32.3998C22.0782 32.5303 22.0642 32.61 22.0645 32.8318C22.0649 33.0639 22.0774 33.1273 22.1498 33.2638C22.2519 33.4566 22.4291 33.6319 22.6241 33.7331C22.8317 33.8408 23.2791 33.8404 23.4881 33.7321C23.5868 33.681 24.3078 32.9829 25.7838 31.5092L27.9356 29.3609L30.1038 31.5244C32.1837 33.5999 32.2799 33.6909 32.4641 33.7588C33.2821 34.0601 34.0604 33.2818 33.759 32.4638C33.6911 32.2796 33.6001 32.1835 31.5247 30.1036L29.3611 27.9354L31.5095 25.7836C32.9832 24.3076 33.6812 23.5866 33.7324 23.4878C33.8406 23.2788 33.8411 22.8314 33.7333 22.6238C33.6321 22.4288 33.4569 22.2516 33.2641 22.1495C33.1275 22.0772 33.0642 22.0646 32.8321 22.0643C32.6102 22.0639 32.5306 22.078 32.4001 22.1405C32.2735 22.2012 31.7899 22.6663 30.0881 24.3638L27.9361 26.5103L25.7681 24.3469C23.714 22.2973 23.5903 22.18 23.4148 22.1157C23.1645 22.0239 22.9164 22.028 22.6721 22.1277Z" fill="#EA1917"/>
</svg>
